{
  "extensions": {
    "EXT_structural_metadata": {
      "propertyTables": [
        {
          "class": "triangles",
          "count": 1,
          "properties": {
            "description": {
              "stringOffsets": 3,
              "values": 2
            },
            "uint8": {
              "values": 4
            },
            "int8": {
              "values": 5
            },
            "int16": {
              "values": 6
            },
            "uint16": {
              "values": 7
            },
            "int32": {
              "values": 8
            },
            "uint32": {
              "values": 9
            },
            "int64": {
              "values": 10
            },
            "uint64": {
              "values": 11
            },
            "float32": {
              "values": 12
            },
            "float64": {
              "values": 13
            },
            "string": {
              "stringOffsets": 15,
              "values": 14
            },
            "species": {
              "values": 16
            },
            "vector3": {
              "values": 17
            },
            "matrix4x4": {
              "values": 18
            }
          }
        }
      ],
      "schema": {
        "classes": {
          "triangles": {
            "properties": {
              "description": {
                "type": "STRING"
              },
              "uint8": {
                "componentType": "UINT8",
                "default": 255,
                "noData": 0,
                "type": "SCALAR"
              },
              "int8": {
                "componentType": "INT8",
                "noData": -128,
                "type": "SCALAR"
              },
              "int16": {
                "componentType": "INT16",
                "noData": -32768,
                "type": "SCALAR"
              },
              "uint16": {
                "componentType": "UINT16",
                "noData": 0,
                "type": "SCALAR"
              },
              "int32": {
                "componentType": "INT32",
                "noData": -2147483648,
                "type": "SCALAR"
              },
              "uint32": {
                "componentType": "UINT32",
                "noData": 0,
                "type": "SCALAR"
              },
              "int64": {
                "componentType": "INT64",
                "noData": -9223372036854775808,
                "type": "SCALAR"
              },
              "uint64": {
                "componentType": "UINT64",
                "noData": 0,
                "type": "SCALAR"
              },
              "float32": {
                "componentType": "FLOAT32",
                "noData": -10,
                "type": "SCALAR"
              },
              "float64": {
                "componentType": "FLOAT64",
                "noData": -1.7976931348623157E+308,
                "type": "SCALAR"
              },
              "string": {
                "default": "-",
                "noData": "noData",
                "type": "STRING"
              },
              "species": {
                "description": "Type of tree.",
                "enumType": "speciesEnum",
                "noData": "Unspecified",
                "type": "ENUM"
              },
              "vector3": {
                "componentType": "FLOAT32",
                "noData": [
                  -10,
                  -10,
                  -10
                ],
                "type": "VEC3"
              },
              "matrix4x4": {
                "componentType": "FLOAT32",
                "noData": [
                  -10,
                  0,
                  0,
                  0,
                  0,
                  -10,
                  0,
                  0,
                  0,
                  0,
                  -10,
                  0,
                  0,
                  0,
                  0,
                  -10
                ],
                "type": "MAT4"
              }
            }
          }
        },
        "enums": {
          "speciesEnum": {
            "description": "An example enum for tree species.",
            "name": "Species",
            "values": [
              {
                "name": "Unspecified",
                "value": 0
              },
              {
                "name": "Oak",
                "value": 1
              },
              {
                "name": "Pine",
                "value": 2
              },
              {
                "name": "Maple",
                "value": 3
              }
            ]
          }
        },
        "id": "schema_001"
      }
    }
  },
  "asset": {
    "copyright": "",
    "generator": "SharpGLTF 1.0.0\u002B73981a3b51ff9434bedac6899b4e3b28e705dfc0",
    "version": "2.0"
  },
  "extensionsUsed": [
    "EXT_structural_metadata",
    "EXT_mesh_features"
  ],
  "accessors": [
    {
      "name": "POSITION",
      "bufferView": 0,
      "componentType": 5126,
      "count": 3,
      "max": [
        1,
        1,
        0
      ],
      "min": [
        0,
        0,
        0
      ],
      "type": "VEC3"
    },
    {
      "name": "NORMAL",
      "bufferView": 0,
      "byteOffset": 12,
      "componentType": 5126,
      "count": 3,
      "max": [
        0,
        0,
        1
      ],
      "min": [
        0,
        0,
        1
      ],
      "type": "VEC3"
    },
    {
      "name": "_FEATURE_ID_0",
      "bufferView": 0,
      "byteOffset": 24,
      "componentType": 5126,
      "count": 3,
      "max": [
        0
      ],
      "min": [
        0
      ],
      "type": "SCALAR"
    },
    {
      "bufferView": 1,
      "componentType": 5123,
      "count": 3,
      "type": "SCALAR"
    }
  ],
  "bufferViews": [
    {
      "buffer": 0,
      "byteLength": 84,
      "byteStride": 28,
      "target": 34962
    },
    {
      "buffer": 0,
      "byteLength": 6,
      "byteOffset": 228,
      "target": 34963
    },
    {
      "buffer": 0,
      "byteLength": 27,
      "byteOffset": 148
    },
    {
      "buffer": 0,
      "byteLength": 8,
      "byteOffset": 188
    },
    {
      "buffer": 0,
      "byteLength": 1,
      "byteOffset": 268
    },
    {
      "buffer": 0,
      "byteLength": 1,
      "byteOffset": 272
    },
    {
      "buffer": 0,
      "byteLength": 2,
      "byteOffset": 256
    },
    {
      "buffer": 0,
      "byteLength": 2,
      "byteOffset": 260
    },
    {
      "buffer": 0,
      "byteLength": 4,
      "byteOffset": 244
    },
    {
      "buffer": 0,
      "byteLength": 4,
      "byteOffset": 248
    },
    {
      "buffer": 0,
      "byteLength": 8,
      "byteOffset": 196
    },
    {
      "buffer": 0,
      "byteLength": 8,
      "byteOffset": 204
    },
    {
      "buffer": 0,
      "byteLength": 4,
      "byteOffset": 252
    },
    {
      "buffer": 0,
      "byteLength": 8,
      "byteOffset": 212
    },
    {
      "buffer": 0,
      "byteLength": 6,
      "byteOffset": 236
    },
    {
      "buffer": 0,
      "byteLength": 8,
      "byteOffset": 220
    },
    {
      "buffer": 0,
      "byteLength": 2,
      "byteOffset": 264
    },
    {
      "buffer": 0,
      "byteLength": 12,
      "byteOffset": 176
    },
    {
      "buffer": 0,
      "byteLength": 64,
      "byteOffset": 84
    }
  ],
  "buffers": [
    {
      "byteLength": 276,
      "uri": "vector3_float32_nodata.bin"
    }
  ],
  "materials": [
    {
      "name": "Default",
      "doubleSided": true,
      "pbrMetallicRoughness": {}
    }
  ],
  "meshes": [
    {
      "name": "mesh",
      "primitives": [
        {
          "extensions": {
            "EXT_mesh_features": {
              "featureIds": [
                {
                  "attribute": 0,
                  "featureCount": 1,
                  "propertyTable": 0
                }
              ]
            }
          },
          "attributes": {
            "POSITION": 0,
            "NORMAL": 1,
            "_FEATURE_ID_0": 2
          },
          "indices": 3,
          "material": 0
        }
      ]
    }
  ],
  "nodes": [
    {
      "mesh": 0
    }
  ],
  "scene": 0,
  "scenes": [
    {
      "nodes": [
        0
      ]
    }
  ]
}