{
  "asset": {
    "generator": "SharpGLTF 1.0.0-alpha0030",
    "version": "2.0"
  },
  "accessors": [
    {
      "name": "POSITION",
      "bufferView": 0,
      "componentType": 5126,
      "count": 1296,
      "max": [
        -3697.352783203125,
        -1036.2022705078125,
        -62.359683990478516
      ],
      "min": [
        -3871.792724609375,
        -1237.401611328125,
        -318.8537292480469
      ],
      "type": "VEC3"
    },
    {
      "name": "NORMAL",
      "bufferView": 0,
      "byteOffset": 12,
      "componentType": 5126,
      "count": 1296,
      "max": [
        0.7715557813644409,
        0.7510220408439636,
        0.6313943862915039
      ],
      "min": [
        -0.7715558409690857,
        -0.7509981393814087,
        -0.6314012408256531
      ],
      "type": "VEC3"
    },
    {
      "name": "_BATCHID",
      "bufferView": 0,
      "byteOffset": 24,
      "componentType": 5126,
      "count": 1296,
      "max": [
        36
      ],
      "min": [
        0
      ],
      "type": "SCALAR"
    },
    {
      "bufferView": 1,
      "componentType": 5123,
      "count": 1356,
      "type": "SCALAR"
    }
  ],
  "bufferViews": [
    {
      "buffer": 0,
      "byteLength": 36288,
      "byteStride": 28,
      "target": 34962,
      "byteOffset": 0
    },
    {
      "buffer": 0,
      "byteLength": 2712,
      "byteOffset": 36288,
      "target": 34963
    }
  ],
  "buffers": [
    {
      "uri": "2_0_1_data.bin",
      "byteLength": 39000
    }
  ],
  "materials": [
    {
      "doubleSided": true,
      "pbrMetallicRoughness": {}
    }
  ],
  "meshes": [
    {
      "name": "mesh",
      "primitives": [
        {
          "attributes": {
            "POSITION": 0,
            "NORMAL": 1,
            "_BATCHID": 2
          },
          "indices": 3,
          "material": 0
        }
      ]
    }
  ],
  "nodes": [
    {
      "matrix": [
        1,
        0,
        0,
        0,
        0,
        0,
        -1,
        0,
        0,
        1,
        0,
        0,
        0,
        0,
        0,
        1
      ],
      "mesh": 0
    }
  ],
  "scene": 0,
  "scenes": [
    {
      "nodes": [
        0
      ]
    }
  ]
}