{
  "asset": {
    "generator": "glTF-Transform v4.0.2",
    "version": "2.0"
  },
  "accessors": [
    {
      "bufferView": 0,
      "componentType": 5123,
      "count": 1521,
      "type": "SCALAR"
    },
    {
      "bufferView": 0,
      "byteOffset": 3044,
      "componentType": 5123,
      "count": 6627,
      "type": "SCALAR"
    },
    {
      "bufferView": 1,
      "componentType": 5126,
      "count": 740,
      "max": [
        3385.92578125,
        3999.103271484375,
        462.9575500488281
      ],
      "min": [
        -3558.85693359375,
        -2171.158447265625,
        -44.34097671508789
      ],
      "type": "VEC3"
    },
    {
      "bufferView": 1,
      "byteOffset": 12,
      "componentType": 5126,
      "count": 740,
      "type": "VEC3"
    },
    {
      "bufferView": 2,
      "componentType": 5126,
      "count": 3635,
      "max": [
        337.61614990234375,
        10371.65625,
        455.7344970703125
      ],
      "min": [
        -337.6162109375,
        -119.18214416503906,
        -1340.06787109375
      ],
      "type": "VEC3"
    },
    {
      "bufferView": 2,
      "byteOffset": 12,
      "componentType": 5126,
      "count": 3635,
      "type": "VEC3"
    },
    {
      "bufferView": 3,
      "componentType": 5126,
      "count": 4,
      "max": [
        3.7083332538604736
      ],
      "min": [
        0
      ],
      "type": "SCALAR"
    },
    {
      "bufferView": 3,
      "byteOffset": 16,
      "componentType": 5126,
      "count": 4,
      "type": "VEC4"
    }
  ],
  "animations": [
    {
      "name": "SM_Rotor_LOD2Action.003",
      "channels": [
        {
          "sampler": 0,
          "target": {
            "node": 0,
            "path": "rotation"
          }
        }
      ],
      "samplers": [
        {
          "input": 6,
          "output": 7
        }
      ]
    }
  ],
  "bufferViews": [
    {
      "buffer": 0,
      "byteLength": 16300,
      "target": 34963,
      "byteOffset": 0
    },
    {
      "buffer": 0,
      "byteLength": 17760,
      "byteOffset": 16300,
      "byteStride": 24,
      "target": 34962
    },
    {
      "buffer": 0,
      "byteLength": 87240,
      "byteOffset": 34060,
      "byteStride": 24,
      "target": 34962
    },
    {
      "buffer": 0,
      "byteLength": 80,
      "byteOffset": 121300
    }
  ],
  "buffers": [
    {
      "uri": "windmill_data.bin",
      "byteLength": 121380
    }
  ],
  "materials": [
    {
      "name": "M_Wind_Turbine",
      "pbrMetallicRoughness": {
        "metallicFactor": 0,
        "roughnessFactor": 0.4000000059604645
      }
    }
  ],
  "meshes": [
    {
      "name": "Mesh_2",
      "primitives": [
        {
          "attributes": {
            "POSITION": 2,
            "NORMAL": 3
          },
          "indices": 0,
          "material": 0
        }
      ]
    },
    {
      "name": "Mesh_2.001",
      "primitives": [
        {
          "attributes": {
            "POSITION": 4,
            "NORMAL": 5
          },
          "indices": 1,
          "material": 0
        }
      ]
    }
  ],
  "nodes": [
    {
      "name": "SM_Rotor_LOD2",
      "mesh": 0,
      "scale": [
        0.01,
        0.01,
        0.01
      ],
      "translation": [
        0,
        100,
        4.9
      ]
    },
    {
      "name": "SM_Pillar_LOD2",
      "mesh": 1,
      "scale": [
        0.01,
        0.01,
        0.01
      ]
    }
  ],
  "scene": 0,
  "scenes": [
    {
      "name": "Scene",
      "nodes": [
        0,
        1
      ]
    }
  ]
}